HIERARCHY
ROOT Pelvis
{
	OFFSET 0.000000 0.000000 0.000000
	CHANNELS 6 Xposition Yposition Zposition Xrotation Yrotation Zrotation
	JOINT LeftUpLeg_virtual
	{
		OFFSET 0.000000 0.000000 0.000000
		CHANNELS 3 Xrotation Yrotation Zrotation
		JOINT LeftUpLeg
		{
			OFFSET 18.735201 -5.666702 -4.541200
			CHANNELS 3 Xrotation Yrotation Zrotation
			JOINT LeftLeg
			{
				OFFSET -0.021200 -31.938179 0.493100
				CHANNELS 3 Xrotation Yrotation Zrotation
				JOINT LeftFoot
				{
					OFFSET 0.021200 -31.938179 -4.336299
					CHANNELS 3 Xrotation Yrotation Zrotation
					JOINT LeftToeBase
					{
						OFFSET 0.943001 -26.722000 15.023500
						CHANNELS 3 Xrotation Yrotation Zrotation
						End Site
						{
							OFFSET 0 0 0
						}
					}
				}
			}
		}
	}
	JOINT RightUpLeg_virtual
	{
		OFFSET 0.000000 0.000000 0.000000
		CHANNELS 3 Xrotation Yrotation Zrotation
		JOINT RightUpLeg
		{
			OFFSET -18.735201 -5.666702 -4.541200
			CHANNELS 3 Xrotation Yrotation Zrotation
			JOINT RightLeg
			{
				OFFSET 0.018946 -31.938133 0.493100
				CHANNELS 3 Xrotation Yrotation Zrotation
				JOINT RightFoot
				{
					OFFSET -0.018946 -31.938126 -4.336299
					CHANNELS 3 Xrotation Yrotation Zrotation
					JOINT RightToeBase
					{
						OFFSET -0.943001 -26.722004 15.023500
						CHANNELS 3 Xrotation Yrotation Zrotation
						End Site
						{
							OFFSET 0 0 0
						}
					}
				}
			}
		}
	}
	JOINT Hips_virtual
	{
		OFFSET 0.000000 0.000000 0.000000
		CHANNELS 3 Xrotation Yrotation Zrotation
		JOINT Hips
		{
			OFFSET -0.000000 -0.000000 -0.000000
			CHANNELS 3 Xrotation Yrotation Zrotation
			JOINT Spine
			{
				OFFSET 0.000000 10.199997 -0.299500
				CHANNELS 3 Xrotation Yrotation Zrotation
				JOINT Spine1
				{
					OFFSET 0.000000 11.900002 -1.516600
					CHANNELS 3 Xrotation Yrotation Zrotation
					JOINT Spine2
					{
						OFFSET 0.000000 13.600006 -2.842500
						CHANNELS 3 Xrotation Yrotation Zrotation
						JOINT Neck_virtual
						{
							OFFSET 0.000000 0.000000 0.000000
							CHANNELS 3 Xrotation Yrotation Zrotation
							JOINT Neck
							{
								OFFSET 0.000000 9.624100 -2.890100
								CHANNELS 3 Xrotation Yrotation Zrotation
								JOINT Head
								{
									OFFSET 0.000000 14.068802 -1.351900
									CHANNELS 3 Xrotation Yrotation Zrotation
									End Site
									{
										OFFSET 0 0 0
									}
								}
							}
						}
						JOINT LeftShoulder_virtual
						{
							OFFSET 0.000000 0.000000 0.000000
							CHANNELS 3 Xrotation Yrotation Zrotation
							JOINT LeftShoulder
							{
								OFFSET 15.263000 10.923401 -0.547700
								CHANNELS 3 Xrotation Yrotation Zrotation
								JOINT LeftArm
								{
									OFFSET 25.438599 -2.830597 -13.032500
									CHANNELS 3 Xrotation Yrotation Zrotation
									JOINT LeftForeArm
									{
										OFFSET 29.960503 0.000000 0.000000
										CHANNELS 3 Xrotation Yrotation Zrotation
										JOINT LeftHand
										{
											OFFSET 27.849251 0.000000 0.000000
											CHANNELS 3 Xrotation Yrotation Zrotation
											End Site
											{
												OFFSET 0 0 0
											}
										}
									}
								}
							}
						}
						JOINT RightShoulder_virtual
						{
							OFFSET 0.000000 0.000000 0.000000
							CHANNELS 3 Xrotation Yrotation Zrotation
							JOINT RightShoulder
							{
								OFFSET -15.263000 10.923401 -0.547700
								CHANNELS 3 Xrotation Yrotation Zrotation
								JOINT RightArm
								{
									OFFSET -25.438599 -2.830597 -13.032500
									CHANNELS 3 Xrotation Yrotation Zrotation
									JOINT RightForeArm
									{
										OFFSET -29.960503 0.000000 0.000000
										CHANNELS 3 Xrotation Yrotation Zrotation
										JOINT RightHand
										{
											OFFSET -27.849251 0.000000 0.000000
											CHANNELS 3 Xrotation Yrotation Zrotation
											End Site
											{
												OFFSET 0 0 0
											}
										}
									}
								}
							}
						}
					}
				}
			}
		}
	}
}
MOTION
Frames: 12
Frame Time: 0.03333333
-3.916342 83.270332 2.332077 0.000000 0.000000 0.000000 3.004789 -58.203266 6.441861 -38.300877 6.311306 29.650695 47.035760 -9.823091 -10.645450 -10.051026 -1.875879 -11.958305 0.000000 0.000000 0.000000 3.004789 -58.203266 6.441861 -34.545990 -3.812177 -30.706246 55.039181 4.468468 -7.825074 -22.927939 0.222208 25.858336 0.000000 0.000000 0.000000 3.004789 -58.203266 6.441861 0.000000 0.000001 0.000000 11.191383 0.081120 -2.661050 8.434589 0.027702 -5.592320 0.000000 0.000000 0.000000 8.457051 0.027853 -5.591867 -3.775693 5.323455 1.581321 0.000000 0.000000 0.000000 8.457051 0.027853 -5.591867 -6.221658 -11.503848 -4.023808 -23.062120 9.568707 -36.639652 0.046167 -43.169442 -0.011137 0.000000 0.000000 0.000000 8.457051 0.027853 -5.591867 -5.488243 10.658284 2.466535 -41.473776 -26.755634 30.079091 -155.044693 68.136929 156.691711 0.000000 0.000000 0.000000 
-3.888117 83.236717 2.293919 0.000000 0.000000 0.000000 3.066685 -58.161547 6.425296 -38.503129 6.247708 29.749784 47.152009 -9.922015 -10.620518 -10.028815 -1.869494 -11.960366 0.000000 0.000000 0.000000 3.066685 -58.161547 6.425296 -34.577081 -3.773140 -30.639699 55.085220 4.436032 -7.799559 -22.949161 0.177875 25.986851 0.000000 0.000000 0.000000 3.066685 -58.161547 6.425296 0.000000 -0.000002 0.000000 11.182253 0.111812 -2.585324 8.418542 0.098064 -5.435018 0.000000 0.000000 0.000000 8.441002 0.098159 -5.434539 -3.605985 5.352905 1.579602 0.000000 0.000000 0.000000 8.441002 0.098159 -5.434539 -5.908037 -11.406755 -4.124969 -23.202750 9.567581 -36.508372 -0.784466 -43.550075 0.142530 0.000000 0.000000 0.000000 8.441002 0.098159 -5.434539 -4.944352 10.745133 2.290180 -41.728136 -26.359911 29.303714 -148.759813 67.825363 150.764309 0.000000 0.000000 0.000000 
-3.841546 83.185936 2.256416 0.000000 0.000000 0.000000 3.229604 -58.201114 6.538826 -38.701973 6.178035 29.792141 47.311604 -9.921256 -10.584439 -10.056663 -1.846806 -11.997527 0.000000 0.000000 0.000000 3.229604 -58.201114 6.538826 -34.751842 -3.613456 -30.615654 55.194226 4.482642 -7.790700 -22.922460 0.107011 26.188564 0.000000 0.000000 0.000000 3.229604 -58.201114 6.538826 0.000000 0.000001 0.000000 11.227416 0.152231 -2.512332 8.510469 0.182103 -5.283890 0.000000 0.000000 0.000000 8.532954 0.182194 -5.283411 -3.495541 5.377482 1.574927 0.000000 0.000000 0.000000 8.532954 0.182194 -5.283411 -5.926041 -11.422278 -4.222787 -23.520458 9.796240 -36.349348 -1.367452 -44.014326 -0.092807 0.000000 0.000000 0.000000 8.532954 0.182194 -5.283411 -4.380903 10.817081 1.921910 -41.835001 -25.699722 27.556361 -146.867700 68.921479 148.959951 0.000000 0.000000 0.000000 
-3.719916 83.044586 2.223392 0.000000 0.000000 0.000000 4.112742 -58.805634 7.629887 -38.749661 6.148647 29.422327 47.594691 -9.190230 -10.502710 -10.370005 -1.713078 -12.306386 0.000000 0.000000 0.000000 4.112742 -58.805634 7.629887 -35.945038 -2.757429 -30.984030 55.740064 5.206604 -7.787485 -22.683506 -0.038365 26.576558 0.000000 0.000000 0.000000 4.112742 -58.805634 7.629887 0.000000 0.000001 0.000000 11.227409 0.296233 -2.370944 8.517014 0.461071 -5.018309 0.000000 0.000000 0.000000 8.539488 0.461214 -5.017857 -3.430302 5.415870 1.518064 0.000000 0.000000 0.000000 8.539488 0.461214 -5.017857 -6.010991 -11.689439 -4.943664 -23.867010 10.489737 -35.847271 -1.358970 -44.669048 -0.392117 0.000000 0.000000 0.000000 8.539488 0.461214 -5.017857 -3.469765 11.203879 1.344714 -41.943181 -23.995587 23.804521 -135.738344 68.849290 138.137338 0.000000 0.000000 0.000000 
-3.572328 82.888474 2.318581 0.000000 0.000000 0.000000 5.460201 -60.484849 9.723973 -37.837257 6.495304 28.500505 47.855102 -7.320197 -10.503596 -11.234680 -1.440529 -12.929925 0.000000 0.000000 0.000000 5.460201 -60.484849 9.723973 -38.274874 -1.272741 -31.983696 56.616445 7.241271 -7.687999 -22.085220 0.000549 26.378124 0.000000 0.000000 0.000000 5.460201 -60.484849 9.723973 0.000000 0.000001 0.000000 11.156152 0.525155 -2.209506 8.384227 0.878939 -4.751179 0.000000 0.000000 0.000000 8.406710 0.879091 -4.750717 -3.408697 5.537585 1.372982 0.000000 0.000000 0.000000 8.406710 0.879091 -4.750717 -6.182895 -11.744696 -6.358273 -24.364261 11.418082 -35.303851 -0.179446 -45.125626 -0.610284 0.000000 0.000000 0.000000 8.406710 0.879091 -4.750717 -2.279822 11.954483 0.575608 -41.451141 -20.729225 18.375458 -121.373828 67.982539 124.207974 0.000000 0.000000 0.000000 
-3.470041 82.738144 2.571014 0.000000 0.000000 0.000000 6.474951 -63.290425 11.719621 -35.855467 7.315267 27.702972 48.420789 -4.998980 -10.708417 -12.812853 -1.011743 -13.675009 0.000000 0.000000 0.000000 6.474951 -63.290425 11.719621 -40.869933 0.482627 -33.059529 57.342723 10.435990 -7.484976 -20.999341 0.202879 25.733798 0.000000 0.000000 0.000000 6.474951 -63.290425 11.719621 0.000000 0.000002 0.000000 11.195302 0.798664 -1.924731 8.471827 1.371215 -4.224844 0.000000 0.000000 0.000000 8.494296 1.371331 -4.224371 -3.378516 5.722885 1.247644 0.000000 0.000000 0.000000 8.494296 1.371331 -4.224371 -6.297090 -11.225109 -7.503790 -24.512946 12.762440 -35.289525 2.906569 -45.907453 -0.373671 0.000000 0.000000 0.000000 8.494296 1.371331 -4.224371 -0.824101 13.212672 -0.556161 -39.774346 -16.273694 11.458021 -103.801766 66.498913 107.550768 0.000000 0.000000 0.000000 
-3.481198 82.553986 2.984798 0.000000 0.000000 0.000000 7.288258 -66.915589 13.614487 -33.073487 8.492554 26.986388 49.288025 -2.491601 -11.133762 -14.880223 -0.442589 -14.515726 0.000000 0.000000 0.000000 7.288258 -66.915589 13.614487 -43.321277 2.533155 -33.920755 57.703487 14.248114 -7.447946 -19.487197 0.295449 25.586963 0.000000 0.000000 0.000000 7.288258 -66.915589 13.614487 0.000000 0.000001 0.000000 11.271815 1.076545 -1.547111 8.629638 1.874502 -3.481286 0.000000 0.000000 0.000000 8.652086 1.874576 -3.480813 -3.191746 5.907689 1.277210 0.000000 0.000000 0.000000 8.652086 1.874576 -3.480813 -6.338674 -10.722808 -7.790872 -23.941666 14.740515 -35.608645 8.559195 -47.274738 0.904929 0.000000 0.000000 0.000000 8.652086 1.874576 -3.480813 0.946368 14.625371 -2.989856 -35.740703 -11.554844 4.434683 -84.327107 63.826697 89.361271 0.000000 0.000000 0.000000 
-3.623264 82.270676 3.568542 0.000000 0.000000 0.000000 8.538655 -70.831042 16.164688 -30.255296 9.522342 25.921014 50.545258 0.044663 -11.699668 -16.467041 0.076878 -15.443194 0.000000 0.000000 0.000000 8.538655 -70.831042 16.164688 -45.826010 4.851776 -34.766001 58.026603 18.257707 -7.602849 -17.869293 0.253567 25.928522 0.000000 0.000000 0.000000 8.538655 -70.831042 16.164688 0.000000 -0.000001 0.000001 11.278732 1.185848 -1.185578 8.640404 2.043183 -2.765163 0.000000 0.000000 0.000000 8.662864 2.043291 -2.764704 -2.854180 6.107141 1.444742 0.000000 0.000000 0.000000 8.662864 2.043291 -2.764704 -6.370888 -10.695883 -7.494658 -22.546613 17.342093 -35.248421 16.922538 -49.718470 3.828318 0.000000 0.000000 0.000000 8.662864 2.043291 -2.764704 2.740892 15.786618 -5.574091 -32.772832 -6.244004 0.288308 -66.189061 58.600783 73.230973 0.000000 0.000000 0.000000 
-3.813685 81.939491 4.264030 0.000000 0.000000 0.000000 10.434754 -74.323298 19.252748 -28.183039 10.040803 24.601988 52.122478 1.894225 -12.064717 -17.447303 0.524219 -16.039355 0.000000 0.000000 0.000000 10.434754 -74.323298 19.252748 -48.044708 6.918708 -35.312262 58.273118 21.577348 -7.807357 -16.414092 0.214998 26.147938 0.000000 0.000000 0.000000 10.434754 -74.323298 19.252748 0.000000 0.000000 0.000000 11.279406 1.139337 -0.818535 8.633496 1.920112 -2.024212 0.000000 0.000000 0.000000 8.655941 1.920266 -2.023769 -2.583180 6.366843 1.596395 0.000000 0.000000 0.000000 8.655941 1.920266 -2.023769 -6.383459 -11.172736 -7.113222 -20.973260 19.117940 -33.922920 29.053320 -52.675659 10.060303 0.000000 0.000000 0.000000 8.655941 1.920266 -2.023769 5.028798 14.990044 -10.823388 -30.771792 -1.148955 0.612786 -53.490159 51.499128 61.950895 0.000000 0.000000 0.000000 
-3.965975 81.655190 5.031296 0.000000 0.000000 0.000000 13.492363 -76.733200 23.019346 -27.739311 10.289134 23.098704 54.626357 3.205011 -12.064584 -19.132350 0.658075 -14.830450 0.000000 0.000000 0.000000 13.492363 -76.733200 23.019346 -49.421118 8.501685 -35.079473 58.189892 23.158680 -8.263897 -15.428984 0.132414 26.234791 0.000000 0.000000 0.000000 13.492363 -76.733200 23.019346 0.000000 0.000000 -0.000001 11.295950 0.943781 -0.374886 8.654767 1.534157 -1.087017 0.000000 0.000000 0.000000 8.677223 1.534328 -1.086585 -2.521386 6.664902 1.673702 0.000000 0.000000 0.000000 8.677223 1.534328 -1.086585 -6.357884 -11.984822 -7.036317 -19.201545 19.088391 -32.049269 45.461408 -55.008291 20.974958 0.000000 0.000000 0.000000 8.677223 1.534328 -1.086585 6.720230 13.025071 -14.590795 -29.710305 3.469896 1.129844 -46.142419 45.147421 55.753151 0.000000 0.000000 0.000000 
-4.035872 81.263435 5.868958 0.000000 0.000000 0.000000 17.925017 -77.848174 27.674178 -28.866975 10.347078 22.304133 57.416489 3.738042 -11.926147 -20.404681 0.757314 -13.860872 0.000000 0.000000 0.000000 17.925017 -77.848174 27.674178 -50.133810 9.935303 -34.191999 58.233148 22.959346 -9.074236 -15.210338 -0.115609 26.375715 0.000000 0.000000 0.000000 17.925017 -77.848174 27.674178 0.000000 0.000000 0.000000 11.209181 0.544063 0.073910 8.471636 0.756828 -0.123819 0.000000 0.000000 0.000000 8.494102 0.756982 -0.123336 -2.603323 6.919061 1.921353 0.000000 0.000000 0.000000 8.494102 0.756982 -0.123336 -6.090634 -13.142466 -5.761867 -15.779320 18.311005 -31.104934 63.904807 -55.259994 35.220618 0.000000 0.000000 0.000000 8.494102 0.756982 -0.123336 7.794210 10.425010 -16.741974 -29.291987 7.245350 2.013508 -41.757615 40.862146 52.425086 0.000000 0.000000 0.000000 
-4.025252 80.748497 6.697433 0.000000 0.000000 0.000000 21.905702 -77.765146 31.437520 -31.048657 10.222176 22.266215 60.207967 3.511406 -11.658914 -21.304866 0.938343 -13.448333 0.000000 0.000000 0.000000 21.905702 -77.765146 31.437520 -50.401127 11.032700 -33.377905 58.450758 21.807037 -9.745384 -15.543984 -0.525561 26.616047 0.000000 0.000000 0.000000 21.905702 -77.765146 31.437520 0.000000 0.000000 0.000001 11.035228 -0.002916 0.448328 8.121784 -0.305086 0.708842 0.000000 0.000000 0.000000 8.144261 -0.304928 0.709308 -2.685083 7.051980 2.348556 0.000000 0.000000 0.000000 8.144261 -0.304928 0.709308 -5.469149 -14.490414 -2.571548 -10.887626 17.129624 -30.606914 78.974841 -52.571908 47.609410 0.000000 0.000000 0.000000 8.144261 -0.304928 0.709308 8.280931 7.708473 -17.371732 -29.103924 9.952231 3.044265 -39.247582 38.506448 50.807134 0.000000 0.000000 0.000000 
